<svg xmlns="http://www.w3.org/2000/svg" class="text-gray-400 group-hover:text-gray-500 mr-3 h-6 w-6 flex-shrink-0" fill="currentColor"
     viewBox="0 0 50 50" stroke-width="0" stroke="currentColor" aria-hidden="true" width="25">

<path style="line-height:normal;text-indent:0;text-align:start;text-decoration-line:none;text-decoration-style:solid;text-decoration-color:#000;text-transform:none;block-progression:tb;isolation:auto;mix-blend-mode:normal" d="M 6 2 L 6 48 L 44 48 L 44 28.873047 L 48.400391 24.5 C 48.493364 24.407027 48.559622 24.300967 48.609375 24.191406 L 48.800781 24 C 50.400781 22.4 50.400781 19.799219 48.800781 18.199219 C 47.500996 16.899433 45.547439 16.676264 44 17.488281 L 44 2 L 6 2 z M 8 4 L 42 4 L 42 19.398438 L 35.398438 26 L 20 26 L 20 28 L 33.400391 28 L 29.400391 32 L 20 32 L 20 34 L 27.400391 34 L 27 34.400391 C 26.8 34.500391 26.699219 34.600781 26.699219 34.800781 L 25 40.800781 C 24.9 41.200781 24.899219 41.500781 25.199219 41.800781 C 25.399219 42.000781 25.600391 42.099609 25.900391 42.099609 L 26.199219 42.099609 L 32.199219 40.5 C 32.299219 40.4 32.499609 40.299219 32.599609 40.199219 L 42 30.859375 L 42 46 L 8 46 L 8 4 z M 13 14 L 13 16 L 17 16 L 17 14 L 13 14 z M 20 14 L 20 16 L 37 16 L 37 14 L 20 14 z M 13 20 L 13 22 L 17 22 L 17 20 L 13 20 z M 20 20 L 20 22 L 37 22 L 37 20 L 20 20 z M 43.798828 20.398438 L 46.75 23.349609 L 31.400391 38.599609 L 31.386719 38.603516 L 28.460938 35.744141 L 28.5 35.599609 L 43.798828 20.398438 z M 13 26 L 13 28 L 17 28 L 17 26 L 13 26 z M 13 32 L 13 34 L 17 34 L 17 32 L 13 32 z" /></svg>