<?xml version="1.0"?>
    <svg xmlns="http://www.w3.org/2000/svg" class="text-gray-400 group-hover:text-gray-500 mr-3 h-6 w-6 flex-shrink-0" fill="currentColor"
         viewBox="0 0 25 25" stroke-width="0" stroke="currentColor" aria-hidden="true">


    <path style="text-indent:0;text-align:start;line-height:normal;text-transform:none;block-progression:tb;-inkscape-font-specification:Sans"
          d="M 2.5 2 C 1.125 2 0 3.125 0 4.5 L 0 19 C 0 20.375 1.125 21.5 2.5 21.5 L 10.5 21.5 C 11.332031 21.5 12 22.175781 12 23 C 12 23.15625 12.070312 23.300781 12.195312 23.394531 C 12.316406 23.488281 12.476562 23.523438 12.625 23.484375 C 12.757812 23.453125 12.871094 23.367188 12.9375 23.25 C 12.980469 23.171875 13 23.085938 13 23 C 13 22.175781 13.667969 21.5 14.5 21.5 L 22.5 21.5 C 23.875 21.5 25 20.375 25 19 L 25 4.5 C 25 3.125 23.875 2 22.5 2 L 14.5 2 C 13.683594 2 12.957031 2.40625 12.5 3.015625 C 12.042969 2.40625 11.316406 2 10.5 2 Z M 2.5 3 L 10.5 3 C 11.335938 3 12 3.664062 12 4.5 L 12 21.0625 C 11.578125 20.734375 11.074219 20.5 10.5 20.5 L 2.5 20.5 C 1.664062 20.5 1 19.835938 1 19 L 1 4.5 C 1 3.664062 1.664062 3 2.5 3 Z M 14.5 3 L 22.5 3 C 23.335938 3 24 3.664062 24 4.5 L 24 19 C 24 19.835938 23.335938 20.5 22.5 20.5 L 14.5 20.5 C 13.925781 20.5 13.421875 20.734375 13 21.0625 L 13 4.5 C 13 3.664062 13.664062 3 14.5 3 Z M 6.203125 4.5 C 5.710938 4.5 5.277344 4.722656 4.9375 5.03125 C 4.597656 5.339844 4.332031 5.730469 4.125 6.171875 C 3.710938 7.054688 3.5 8.105469 3.5 9 C 3.5 10.273438 3.96875 11.003906 4.40625 11.40625 C 4.625 11.605469 4.816406 11.738281 4.90625 11.828125 C 4.996094 11.917969 5 11.90625 5 12 L 5 16 C 5 17.078125 5.039062 17.71875 5.203125 18.203125 C 5.285156 18.445312 5.417969 18.667969 5.625 18.8125 C 5.832031 18.957031 6.074219 19 6.265625 19 C 6.476562 19 6.726562 18.941406 6.921875 18.78125 C 7.117188 18.621094 7.238281 18.398438 7.3125 18.15625 C 7.464844 17.667969 7.5 17.015625 7.5 16 L 7.5 12 C 7.5 11.90625 7.488281 11.914062 7.578125 11.828125 C 7.667969 11.742188 7.859375 11.621094 8.078125 11.421875 C 8.519531 11.023438 9 10.292969 9 9 C 9 8.042969 8.769531 6.992188 8.328125 6.125 C 7.886719 5.257812 7.175781 4.5 6.203125 4.5 Z M 6.203125 5.5 C 6.648438 5.5 7.085938 5.867188 7.4375 6.5625 C 7.789062 7.257812 8 8.207031 8 9 C 8 10.082031 7.730469 10.394531 7.421875 10.671875 C 7.265625 10.8125 7.082031 10.933594 6.890625 11.125 C 6.699219 11.316406 6.5 11.632812 6.5 12 L 6.5 16 C 6.5 16.984375 6.441406 17.582031 6.359375 17.84375 C 6.320312 17.976562 6.273438 18.003906 6.28125 18 C 6.289062 17.996094 6.324219 18 6.265625 18 C 6.1875 18 6.191406 17.992188 6.203125 18 C 6.214844 18.007812 6.195312 18.007812 6.15625 17.890625 C 6.074219 17.65625 6 17.046875 6 16 L 6 12 C 6 11.632812 5.816406 11.316406 5.625 11.125 C 5.433594 10.933594 5.25 10.800781 5.09375 10.65625 C 4.78125 10.371094 4.5 10.058594 4.5 9 C 4.5 8.269531 4.695312 7.320312 5.03125 6.609375 C 5.199219 6.253906 5.402344 5.953125 5.609375 5.765625 C 5.816406 5.578125 5.988281 5.5 6.203125 5.5 Z M 14.859375 6 C 14.582031 6.039062 14.390625 6.292969 14.429688 6.570312 C 14.46875 6.847656 14.722656 7.039062 15 7 L 19.5 7 C 19.679688 7.003906 19.847656 6.90625 19.9375 6.753906 C 20.03125 6.597656 20.03125 6.402344 19.9375 6.246094 C 19.847656 6.09375 19.679688 5.996094 19.5 6 L 15 6 C 14.984375 6 14.96875 6 14.953125 6 C 14.9375 6 14.921875 6 14.90625 6 C 14.890625 6 14.875 6 14.859375 6 Z M 21.359375 6 C 21.082031 6.039062 20.890625 6.292969 20.929688 6.570312 C 20.96875 6.847656 21.222656 7.039062 21.5 7 L 22 7 C 22.179688 7.003906 22.347656 6.90625 22.4375 6.753906 C 22.53125 6.597656 22.53125 6.402344 22.4375 6.246094 C 22.347656 6.09375 22.179688 5.996094 22 6 L 21.5 6 C 21.484375 6 21.46875 6 21.453125 6 C 21.4375 6 21.421875 6 21.40625 6 C 21.390625 6 21.375 6 21.359375 6 Z M 14.859375 8.5 C 14.582031 8.539062 14.390625 8.792969 14.429688 9.070312 C 14.46875 9.347656 14.722656 9.539062 15 9.5 L 19.5 9.5 C 19.679688 9.503906 19.847656 9.40625 19.9375 9.253906 C 20.03125 9.097656 20.03125 8.902344 19.9375 8.746094 C 19.847656 8.59375 19.679688 8.496094 19.5 8.5 L 15 8.5 C 14.984375 8.5 14.96875 8.5 14.953125 8.5 C 14.9375 8.5 14.921875 8.5 14.90625 8.5 C 14.890625 8.5 14.875 8.5 14.859375 8.5 Z M 21.359375 8.5 C 21.082031 8.539062 20.890625 8.792969 20.929688 9.070312 C 20.96875 9.347656 21.222656 9.539062 21.5 9.5 L 22 9.5 C 22.179688 9.503906 22.347656 9.40625 22.4375 9.253906 C 22.53125 9.097656 22.53125 8.902344 22.4375 8.746094 C 22.347656 8.59375 22.179688 8.496094 22 8.5 L 21.5 8.5 C 21.484375 8.5 21.46875 8.5 21.453125 8.5 C 21.4375 8.5 21.421875 8.5 21.40625 8.5 C 21.390625 8.5 21.375 8.5 21.359375 8.5 Z M 14.859375 11 C 14.582031 11.039062 14.390625 11.292969 14.429688 11.570312 C 14.46875 11.847656 14.722656 12.039062 15 12 L 19.5 12 C 19.679688 12.003906 19.847656 11.90625 19.9375 11.753906 C 20.03125 11.597656 20.03125 11.402344 19.9375 11.246094 C 19.847656 11.09375 19.679688 10.996094 19.5 11 L 15 11 C 14.984375 11 14.96875 11 14.953125 11 C 14.9375 11 14.921875 11 14.90625 11 C 14.890625 11 14.875 11 14.859375 11 Z M 21.359375 11 C 21.082031 11.039062 20.890625 11.292969 20.929688 11.570312 C 20.96875 11.847656 21.222656 12.039062 21.5 12 L 22 12 C 22.179688 12.003906 22.347656 11.90625 22.4375 11.753906 C 22.53125 11.597656 22.53125 11.402344 22.4375 11.246094 C 22.347656 11.09375 22.179688 10.996094 22 11 L 21.5 11 C 21.484375 11 21.46875 11 21.453125 11 C 21.4375 11 21.421875 11 21.40625 11 C 21.390625 11 21.375 11 21.359375 11 Z M 14.859375 13.5 C 14.582031 13.539062 14.390625 13.792969 14.429688 14.070312 C 14.46875 14.347656 14.722656 14.539062 15 14.5 L 19.5 14.5 C 19.679688 14.503906 19.847656 14.40625 19.9375 14.253906 C 20.03125 14.097656 20.03125 13.902344 19.9375 13.746094 C 19.847656 13.59375 19.679688 13.496094 19.5 13.5 L 15 13.5 C 14.984375 13.5 14.96875 13.5 14.953125 13.5 C 14.9375 13.5 14.921875 13.5 14.90625 13.5 C 14.890625 13.5 14.875 13.5 14.859375 13.5 Z M 21.359375 13.5 C 21.082031 13.539062 20.890625 13.792969 20.929688 14.070312 C 20.96875 14.347656 21.222656 14.539062 21.5 14.5 L 22 14.5 C 22.179688 14.503906 22.347656 14.40625 22.4375 14.253906 C 22.53125 14.097656 22.53125 13.902344 22.4375 13.746094 C 22.347656 13.59375 22.179688 13.496094 22 13.5 L 21.5 13.5 C 21.484375 13.5 21.46875 13.5 21.453125 13.5 C 21.4375 13.5 21.421875 13.5 21.40625 13.5 C 21.390625 13.5 21.375 13.5 21.359375 13.5 Z M 14.859375 16 C 14.582031 16.039062 14.390625 16.292969 14.429688 16.570312 C 14.46875 16.847656 14.722656 17.039062 15 17 L 19.5 17 C 19.679688 17.003906 19.847656 16.90625 19.9375 16.753906 C 20.03125 16.597656 20.03125 16.402344 19.9375 16.246094 C 19.847656 16.09375 19.679688 15.996094 19.5 16 L 15 16 C 14.984375 16 14.96875 16 14.953125 16 C 14.9375 16 14.921875 16 14.90625 16 C 14.890625 16 14.875 16 14.859375 16 Z M 21.359375 16 C 21.082031 16.039062 20.890625 16.292969 20.929688 16.570312 C 20.96875 16.847656 21.222656 17.039062 21.5 17 L 22 17 C 22.179688 17.003906 22.347656 16.90625 22.4375 16.753906 C 22.53125 16.597656 22.53125 16.402344 22.4375 16.246094 C 22.347656 16.09375 22.179688 15.996094 22 16 L 21.5 16 C 21.484375 16 21.46875 16 21.453125 16 C 21.4375 16 21.421875 16 21.40625 16 C 21.390625 16 21.375 16 21.359375 16 Z M 21.359375 16 "/>/>
</svg>
